<svg width="1080" height="1080" viewBox="0 0 1080 1080" fill="none" xmlns="http://www.w3.org/2000/svg">
<rect x="87" y="835" width="570" height="826" transform="rotate(-90 87 835)" fill="#343A40"/>
<rect x="107" y="815" width="570" height="826" transform="rotate(-90 107 815)" fill="#D3D3D3"/>
<path d="M472.665 448.5H452.756C452.392 445.924 451.65 443.636 450.528 441.636C449.407 439.606 447.968 437.879 446.21 436.455C444.453 435.03 442.422 433.939 440.119 433.182C437.847 432.424 435.377 432.045 432.71 432.045C427.892 432.045 423.695 433.242 420.119 435.636C416.544 438 413.771 441.455 411.801 446C409.831 450.515 408.847 456 408.847 462.455C408.847 469.091 409.831 474.667 411.801 479.182C413.801 483.697 416.589 487.106 420.165 489.409C423.741 491.712 427.877 492.864 432.574 492.864C435.21 492.864 437.65 492.515 439.892 491.818C442.165 491.121 444.18 490.106 445.938 488.773C447.695 487.409 449.15 485.758 450.301 483.818C451.483 481.879 452.301 479.667 452.756 477.182L472.665 477.273C472.15 481.545 470.862 485.667 468.801 489.636C466.771 493.576 464.028 497.106 460.574 500.227C457.15 503.318 453.059 505.773 448.301 507.591C443.574 509.379 438.225 510.273 432.256 510.273C423.953 510.273 416.528 508.394 409.983 504.636C403.468 500.879 398.316 495.439 394.528 488.318C390.771 481.197 388.892 472.576 388.892 462.455C388.892 452.303 390.801 443.667 394.619 436.545C398.438 429.424 403.619 424 410.165 420.273C416.71 416.515 424.074 414.636 432.256 414.636C437.65 414.636 442.65 415.394 447.256 416.909C451.892 418.424 455.998 420.636 459.574 423.545C463.15 426.424 466.059 429.955 468.301 434.136C470.574 438.318 472.028 443.106 472.665 448.5ZM544.278 415.909H563.96V476.364C563.96 483.152 562.339 489.091 559.097 494.182C555.884 499.273 551.384 503.242 545.597 506.091C539.809 508.909 533.066 510.318 525.369 510.318C517.642 510.318 510.884 508.909 505.097 506.091C499.309 503.242 494.809 499.273 491.597 494.182C488.384 489.091 486.778 483.152 486.778 476.364V415.909H506.46V474.682C506.46 478.227 507.233 481.379 508.778 484.136C510.354 486.894 512.566 489.061 515.415 490.636C518.263 492.212 521.581 493 525.369 493C529.188 493 532.506 492.212 535.324 490.636C538.172 489.061 540.369 486.894 541.915 484.136C543.491 481.379 544.278 478.227 544.278 474.682V415.909ZM576.608 432.136V415.909H653.062V432.136H624.562V509H605.108V432.136H576.608ZM392.153 664V570.909H429.426C436.275 570.909 441.987 571.924 446.562 573.955C451.138 575.985 454.578 578.803 456.881 582.409C459.184 585.985 460.335 590.106 460.335 594.773C460.335 598.409 459.608 601.606 458.153 604.364C456.699 607.091 454.699 609.333 452.153 611.091C449.638 612.818 446.759 614.045 443.517 614.773V615.682C447.063 615.833 450.381 616.833 453.472 618.682C456.593 620.53 459.123 623.121 461.062 626.455C463.002 629.758 463.972 633.697 463.972 638.273C463.972 643.212 462.744 647.621 460.29 651.5C457.866 655.348 454.275 658.394 449.517 660.636C444.759 662.879 438.896 664 431.926 664H392.153ZM411.835 647.909H427.881C433.366 647.909 437.366 646.864 439.881 644.773C442.396 642.652 443.653 639.833 443.653 636.318C443.653 633.742 443.032 631.47 441.79 629.5C440.547 627.53 438.775 625.985 436.472 624.864C434.199 623.742 431.487 623.182 428.335 623.182H411.835V647.909ZM411.835 609.864H426.426C429.123 609.864 431.517 609.394 433.608 608.455C435.729 607.485 437.396 606.121 438.608 604.364C439.85 602.606 440.472 600.5 440.472 598.045C440.472 594.682 439.275 591.97 436.881 589.909C434.517 587.848 431.153 586.818 426.79 586.818H411.835V609.864ZM562.324 617.455C562.324 627.606 560.4 636.242 556.551 643.364C552.733 650.485 547.521 655.924 540.915 659.682C534.339 663.409 526.945 665.273 518.733 665.273C510.46 665.273 503.036 663.394 496.46 659.636C489.884 655.879 484.688 650.439 480.869 643.318C477.051 636.197 475.142 627.576 475.142 617.455C475.142 607.303 477.051 598.667 480.869 591.545C484.688 584.424 489.884 579 496.46 575.273C503.036 571.515 510.46 569.636 518.733 569.636C526.945 569.636 534.339 571.515 540.915 575.273C547.521 579 552.733 584.424 556.551 591.545C560.4 598.667 562.324 607.303 562.324 617.455ZM542.369 617.455C542.369 610.879 541.384 605.333 539.415 600.818C537.475 596.303 534.733 592.879 531.188 590.545C527.642 588.212 523.491 587.045 518.733 587.045C513.975 587.045 509.824 588.212 506.278 590.545C502.733 592.879 499.975 596.303 498.006 600.818C496.066 605.333 495.097 610.879 495.097 617.455C495.097 624.03 496.066 629.576 498.006 634.091C499.975 638.606 502.733 642.03 506.278 644.364C509.824 646.697 513.975 647.864 518.733 647.864C523.491 647.864 527.642 646.697 531.188 644.364C534.733 642.03 537.475 638.606 539.415 634.091C541.384 629.576 542.369 624.03 542.369 617.455ZM590.983 570.909L609.756 602.636H610.483L629.347 570.909H651.574L623.165 617.455L652.21 664H629.574L610.483 632.227H609.756L590.665 664H568.119L597.256 617.455L568.665 570.909H590.983Z" fill="black"/>
<rect x="747" y="262" width="232" height="70" fill="#5C0D0D"/>
<rect x="758" y="250" width="232" height="70" fill="#EF4B4C"/>
</svg>
