<svg width="1080" height="1080" viewBox="0 0 1080 1080" fill="none" xmlns="http://www.w3.org/2000/svg">
<ellipse cx="510" cy="548" rx="350" ry="300" fill="#343A40"/>
<ellipse cx="530" cy="531" rx="350" ry="300" fill="#D9D9D9"/>
<path d="M482.665 448.5H462.756C462.392 445.924 461.65 443.636 460.528 441.636C459.407 439.606 457.968 437.879 456.21 436.455C454.453 435.03 452.422 433.939 450.119 433.182C447.847 432.424 445.377 432.045 442.71 432.045C437.892 432.045 433.695 433.242 430.119 435.636C426.544 438 423.771 441.455 421.801 446C419.831 450.515 418.847 456 418.847 462.455C418.847 469.091 419.831 474.667 421.801 479.182C423.801 483.697 426.589 487.106 430.165 489.409C433.741 491.712 437.877 492.864 442.574 492.864C445.21 492.864 447.65 492.515 449.892 491.818C452.165 491.121 454.18 490.106 455.938 488.773C457.695 487.409 459.15 485.758 460.301 483.818C461.483 481.879 462.301 479.667 462.756 477.182L482.665 477.273C482.15 481.545 480.862 485.667 478.801 489.636C476.771 493.576 474.028 497.106 470.574 500.227C467.15 503.318 463.059 505.773 458.301 507.591C453.574 509.379 448.225 510.273 442.256 510.273C433.953 510.273 426.528 508.394 419.983 504.636C413.468 500.879 408.316 495.439 404.528 488.318C400.771 481.197 398.892 472.576 398.892 462.455C398.892 452.303 400.801 443.667 404.619 436.545C408.438 429.424 413.619 424 420.165 420.273C426.71 416.515 434.074 414.636 442.256 414.636C447.65 414.636 452.65 415.394 457.256 416.909C461.892 418.424 465.998 420.636 469.574 423.545C473.15 426.424 476.059 429.955 478.301 434.136C480.574 438.318 482.028 443.106 482.665 448.5ZM554.278 415.909H573.96V476.364C573.96 483.152 572.339 489.091 569.097 494.182C565.884 499.273 561.384 503.242 555.597 506.091C549.809 508.909 543.066 510.318 535.369 510.318C527.642 510.318 520.884 508.909 515.097 506.091C509.309 503.242 504.809 499.273 501.597 494.182C498.384 489.091 496.778 483.152 496.778 476.364V415.909H516.46V474.682C516.46 478.227 517.233 481.379 518.778 484.136C520.354 486.894 522.566 489.061 525.415 490.636C528.263 492.212 531.581 493 535.369 493C539.188 493 542.506 492.212 545.324 490.636C548.172 489.061 550.369 486.894 551.915 484.136C553.491 481.379 554.278 478.227 554.278 474.682V415.909ZM586.608 432.136V415.909H663.062V432.136H634.562V509H615.108V432.136H586.608ZM285.778 664V570.909H348.506V587.136H305.46V609.318H345.278V625.545H305.46V647.773H348.688V664H285.778ZM364.153 664V570.909H383.835V647.773H423.744V664H364.153ZM436.778 664V570.909H456.46V647.773H496.369V664H436.778ZM529.085 570.909V664H509.403V570.909H529.085ZM545.278 664V570.909H582.006C589.066 570.909 595.081 572.258 600.051 574.955C605.021 577.621 608.809 581.333 611.415 586.091C614.051 590.818 615.369 596.273 615.369 602.455C615.369 608.636 614.036 614.091 611.369 618.818C608.703 623.545 604.839 627.227 599.778 629.864C594.748 632.5 588.657 633.818 581.506 633.818H558.097V618.045H578.324C582.112 618.045 585.233 617.394 587.688 616.091C590.172 614.758 592.021 612.924 593.233 610.591C594.475 608.227 595.097 605.515 595.097 602.455C595.097 599.364 594.475 596.667 593.233 594.364C592.021 592.03 590.172 590.227 587.688 588.955C585.203 587.652 582.051 587 578.233 587H564.96V664H545.278ZM678.653 597.682C678.29 594.015 676.729 591.167 673.972 589.136C671.214 587.106 667.472 586.091 662.744 586.091C659.532 586.091 656.82 586.545 654.608 587.455C652.396 588.333 650.699 589.561 649.517 591.136C648.366 592.712 647.79 594.5 647.79 596.5C647.729 598.167 648.078 599.621 648.835 600.864C649.623 602.106 650.699 603.182 652.062 604.091C653.426 604.97 655.002 605.742 656.79 606.409C658.578 607.045 660.487 607.591 662.517 608.045L670.881 610.045C674.941 610.955 678.669 612.167 682.062 613.682C685.456 615.197 688.396 617.061 690.881 619.273C693.366 621.485 695.29 624.091 696.653 627.091C698.047 630.091 698.759 633.53 698.79 637.409C698.759 643.106 697.305 648.045 694.426 652.227C691.578 656.379 687.456 659.606 682.062 661.909C676.699 664.182 670.229 665.318 662.653 665.318C655.138 665.318 648.593 664.167 643.017 661.864C637.472 659.561 633.138 656.152 630.017 651.636C626.926 647.091 625.305 641.47 625.153 634.773H644.199C644.411 637.894 645.305 640.5 646.881 642.591C648.487 644.652 650.623 646.212 653.29 647.273C655.987 648.303 659.032 648.818 662.426 648.818C665.759 648.818 668.653 648.333 671.108 647.364C673.593 646.394 675.517 645.045 676.881 643.318C678.244 641.591 678.926 639.606 678.926 637.364C678.926 635.273 678.305 633.515 677.062 632.091C675.85 630.667 674.063 629.455 671.699 628.455C669.366 627.455 666.502 626.545 663.108 625.727L652.972 623.182C645.123 621.273 638.926 618.288 634.381 614.227C629.835 610.167 627.578 604.697 627.608 597.818C627.578 592.182 629.078 587.258 632.108 583.045C635.169 578.833 639.366 575.545 644.699 573.182C650.032 570.818 656.093 569.636 662.881 569.636C669.79 569.636 675.82 570.818 680.972 573.182C686.153 575.545 690.184 578.833 693.062 583.045C695.941 587.258 697.426 592.136 697.517 597.682H678.653ZM712.028 664V570.909H774.756V587.136H731.71V609.318H771.528V625.545H731.71V647.773H774.938V664H712.028Z" fill="black"/>
<rect x="683" y="262" width="232" height="70" fill="#5C0D0D"/>
<rect x="694" y="250" width="232" height="70" fill="#EF4B4C"/>
<rect x="683" y="262" width="232" height="70" fill="#5C0D0D"/>
<rect x="694" y="250" width="232" height="70" fill="#EF4B4C"/>
</svg>
