<svg width="1080" height="1080" viewBox="0 0 1080 1080" fill="none" xmlns="http://www.w3.org/2000/svg">
<circle cx="520" cy="557" r="350" fill="#343A40"/>
<circle cx="540" cy="540" r="350" fill="#D9D9D9"/>
<path d="M492.665 448.5H472.756C472.392 445.924 471.65 443.636 470.528 441.636C469.407 439.606 467.968 437.879 466.21 436.455C464.453 435.03 462.422 433.939 460.119 433.182C457.847 432.424 455.377 432.045 452.71 432.045C447.892 432.045 443.695 433.242 440.119 435.636C436.544 438 433.771 441.455 431.801 446C429.831 450.515 428.847 456 428.847 462.455C428.847 469.091 429.831 474.667 431.801 479.182C433.801 483.697 436.589 487.106 440.165 489.409C443.741 491.712 447.877 492.864 452.574 492.864C455.21 492.864 457.65 492.515 459.892 491.818C462.165 491.121 464.18 490.106 465.938 488.773C467.695 487.409 469.15 485.758 470.301 483.818C471.483 481.879 472.301 479.667 472.756 477.182L492.665 477.273C492.15 481.545 490.862 485.667 488.801 489.636C486.771 493.576 484.028 497.106 480.574 500.227C477.15 503.318 473.059 505.773 468.301 507.591C463.574 509.379 458.225 510.273 452.256 510.273C443.953 510.273 436.528 508.394 429.983 504.636C423.468 500.879 418.316 495.439 414.528 488.318C410.771 481.197 408.892 472.576 408.892 462.455C408.892 452.303 410.801 443.667 414.619 436.545C418.438 429.424 423.619 424 430.165 420.273C436.71 416.515 444.074 414.636 452.256 414.636C457.65 414.636 462.65 415.394 467.256 416.909C471.892 418.424 475.998 420.636 479.574 423.545C483.15 426.424 486.059 429.955 488.301 434.136C490.574 438.318 492.028 443.106 492.665 448.5ZM564.278 415.909H583.96V476.364C583.96 483.152 582.339 489.091 579.097 494.182C575.884 499.273 571.384 503.242 565.597 506.091C559.809 508.909 553.066 510.318 545.369 510.318C537.642 510.318 530.884 508.909 525.097 506.091C519.309 503.242 514.809 499.273 511.597 494.182C508.384 489.091 506.778 483.152 506.778 476.364V415.909H526.46V474.682C526.46 478.227 527.233 481.379 528.778 484.136C530.354 486.894 532.566 489.061 535.415 490.636C538.263 492.212 541.581 493 545.369 493C549.188 493 552.506 492.212 555.324 490.636C558.172 489.061 560.369 486.894 561.915 484.136C563.491 481.379 564.278 478.227 564.278 474.682V415.909ZM596.608 432.136V415.909H673.062V432.136H644.562V509H625.108V432.136H596.608ZM347.091 597.682C346.727 594.015 345.167 591.167 342.409 589.136C339.652 587.106 335.909 586.091 331.182 586.091C327.97 586.091 325.258 586.545 323.045 587.455C320.833 588.333 319.136 589.561 317.955 591.136C316.803 592.712 316.227 594.5 316.227 596.5C316.167 598.167 316.515 599.621 317.273 600.864C318.061 602.106 319.136 603.182 320.5 604.091C321.864 604.97 323.439 605.742 325.227 606.409C327.015 607.045 328.924 607.591 330.955 608.045L339.318 610.045C343.379 610.955 347.106 612.167 350.5 613.682C353.894 615.197 356.833 617.061 359.318 619.273C361.803 621.485 363.727 624.091 365.091 627.091C366.485 630.091 367.197 633.53 367.227 637.409C367.197 643.106 365.742 648.045 362.864 652.227C360.015 656.379 355.894 659.606 350.5 661.909C345.136 664.182 338.667 665.318 331.091 665.318C323.576 665.318 317.03 664.167 311.455 661.864C305.909 659.561 301.576 656.152 298.455 651.636C295.364 647.091 293.742 641.47 293.591 634.773H312.636C312.848 637.894 313.742 640.5 315.318 642.591C316.924 644.652 319.061 646.212 321.727 647.273C324.424 648.303 327.47 648.818 330.864 648.818C334.197 648.818 337.091 648.333 339.545 647.364C342.03 646.394 343.955 645.045 345.318 643.318C346.682 641.591 347.364 639.606 347.364 637.364C347.364 635.273 346.742 633.515 345.5 632.091C344.288 630.667 342.5 629.455 340.136 628.455C337.803 627.455 334.939 626.545 331.545 625.727L321.409 623.182C313.561 621.273 307.364 618.288 302.818 614.227C298.273 610.167 296.015 604.697 296.045 597.818C296.015 592.182 297.515 587.258 300.545 583.045C303.606 578.833 307.803 575.545 313.136 573.182C318.47 570.818 324.53 569.636 331.318 569.636C338.227 569.636 344.258 570.818 349.409 573.182C354.591 575.545 358.621 578.833 361.5 583.045C364.379 587.258 365.864 592.136 365.955 597.682H347.091ZM380.466 664V570.909H417.193C424.254 570.909 430.269 572.258 435.239 574.955C440.208 577.621 443.996 581.333 446.602 586.091C449.239 590.818 450.557 596.273 450.557 602.455C450.557 608.636 449.223 614.091 446.557 618.818C443.89 623.545 440.027 627.227 434.966 629.864C429.936 632.5 423.845 633.818 416.693 633.818H393.284V618.045H413.511C417.299 618.045 420.42 617.394 422.875 616.091C425.36 614.758 427.208 612.924 428.42 610.591C429.663 608.227 430.284 605.515 430.284 602.455C430.284 599.364 429.663 596.667 428.42 594.364C427.208 592.03 425.36 590.227 422.875 588.955C420.39 587.652 417.239 587 413.42 587H400.148V664H380.466ZM463.341 664V570.909H483.023V609.318H522.977V570.909H542.614V664H522.977V625.545H483.023V664H463.341ZM558.841 664V570.909H621.568V587.136H578.523V609.318H618.341V625.545H578.523V647.773H621.75V664H558.841ZM637.216 664V570.909H673.943C680.973 570.909 686.973 572.167 691.943 574.682C696.943 577.167 700.746 580.697 703.352 585.273C705.989 589.818 707.307 595.167 707.307 601.318C707.307 607.5 705.973 612.818 703.307 617.273C700.64 621.697 696.777 625.091 691.716 627.455C686.686 629.818 680.595 631 673.443 631H648.852V615.182H670.261C674.019 615.182 677.14 614.667 679.625 613.636C682.11 612.606 683.958 611.061 685.17 609C686.413 606.939 687.034 604.379 687.034 601.318C687.034 598.227 686.413 595.621 685.17 593.5C683.958 591.379 682.095 589.773 679.58 588.682C677.095 587.561 673.958 587 670.17 587H656.898V664H637.216ZM687.489 621.636L710.625 664H688.898L666.261 621.636H687.489ZM721.216 664V570.909H783.943V587.136H740.898V609.318H780.716V625.545H740.898V647.773H784.125V664H721.216Z" fill="black"/>
<rect x="683" y="262" width="232" height="70" fill="#5C0D0D"/>
<rect x="694" y="250" width="232" height="70" fill="#EF4B4C"/>
<rect x="683" y="262" width="232" height="70" fill="#5C0D0D"/>
<rect x="694" y="250" width="232" height="70" fill="#EF4B4C"/>
</svg>
