<svg width="1080" height="1080" viewBox="0 0 1080 1080" fill="none" xmlns="http://www.w3.org/2000/svg">
<rect x="210" y="835" width="570" height="600" transform="rotate(-90 210 835)" fill="#343A40"/>
<rect x="230" y="815" width="570" height="600" transform="rotate(-90 230 815)" fill="#D3D3D3"/>
<path d="M473.392 405.909V499H456.392L415.892 440.409H415.21V499H395.528V405.909H412.801L452.983 464.455H453.801V405.909H473.392ZM489.653 499V405.909H552.381V422.136H509.335V444.318H549.153V460.545H509.335V482.773H552.562V499H489.653ZM588.983 499L562.347 405.909H583.847L599.256 470.591H600.028L617.028 405.909H635.438L652.392 470.727H653.21L668.619 405.909H690.119L663.483 499H644.301L626.574 438.136H625.847L608.165 499H588.983ZM317.403 560.909H341.676L367.312 623.455H368.403L394.04 560.909H418.312V654H399.222V593.409H398.449L374.358 653.545H361.358L337.267 593.182H336.494V654H317.403V560.909ZM520.074 607.455C520.074 617.606 518.15 626.242 514.301 633.364C510.483 640.485 505.271 645.924 498.665 649.682C492.089 653.409 484.695 655.273 476.483 655.273C468.21 655.273 460.786 653.394 454.21 649.636C447.634 645.879 442.438 640.439 438.619 633.318C434.801 626.197 432.892 617.576 432.892 607.455C432.892 597.303 434.801 588.667 438.619 581.545C442.438 574.424 447.634 569 454.21 565.273C460.786 561.515 468.21 559.636 476.483 559.636C484.695 559.636 492.089 561.515 498.665 565.273C505.271 569 510.483 574.424 514.301 581.545C518.15 588.667 520.074 597.303 520.074 607.455ZM500.119 607.455C500.119 600.879 499.134 595.333 497.165 590.818C495.225 586.303 492.483 582.879 488.938 580.545C485.392 578.212 481.241 577.045 476.483 577.045C471.725 577.045 467.574 578.212 464.028 580.545C460.483 582.879 457.725 586.303 455.756 590.818C453.816 595.333 452.847 600.879 452.847 607.455C452.847 614.03 453.816 619.576 455.756 624.091C457.725 628.606 460.483 632.03 464.028 634.364C467.574 636.697 471.725 637.864 476.483 637.864C481.241 637.864 485.392 636.697 488.938 634.364C492.483 632.03 495.225 628.606 497.165 624.091C499.134 619.576 500.119 614.03 500.119 607.455ZM567.653 654H534.653V560.909H567.926C577.29 560.909 585.35 562.773 592.108 566.5C598.866 570.197 604.063 575.515 607.699 582.455C611.366 589.394 613.199 597.697 613.199 607.364C613.199 617.061 611.366 625.394 607.699 632.364C604.063 639.333 598.835 644.682 592.017 648.409C585.229 652.136 577.108 654 567.653 654ZM554.335 637.136H566.835C572.653 637.136 577.547 636.106 581.517 634.045C585.517 631.955 588.517 628.727 590.517 624.364C592.547 619.97 593.562 614.303 593.562 607.364C593.562 600.485 592.547 594.864 590.517 590.5C588.517 586.136 585.532 582.924 581.562 580.864C577.593 578.803 572.699 577.773 566.881 577.773H554.335V637.136ZM627.778 654V560.909H690.506V577.136H647.46V599.318H687.278V615.545H647.46V637.773H690.688V654H627.778ZM706.153 654V560.909H725.835V637.773H765.744V654H706.153Z" fill="black"/>
<rect x="683" y="262" width="232" height="70" fill="#5C0D0D"/>
<rect x="694" y="250" width="232" height="70" fill="#EF4B4C"/>
<path d="M683 262H915V332H683V262Z" fill="#1F8B37"/>
<path d="M834 181L834 413H764L764 181L834 181Z" fill="#1F8B37"/>
<path d="M694 250H926V320H694V250Z" fill="#26BC47"/>
<path d="M845 169L845 401H775L775 169L845 169Z" fill="#26BC47"/>
<rect x="246" y="260" width="50" height="50" fill="#FFC700"/>
<rect x="246" y="756" width="50" height="50" fill="#343A40"/>
<rect x="246" y="706" width="50" height="50" fill="#FFC700"/>
<rect x="296" y="706" width="50" height="50" fill="#EF4B4C"/>
<rect x="446" y="706" width="50" height="50" fill="#157EE7"/>
<rect x="726" y="706" width="50" height="50" fill="#26BC47"/>
<rect x="726" y="656" width="50" height="50" fill="#1F8B37"/>
<rect x="676" y="756" width="50" height="50" fill="#26BC47"/>
<rect x="626" y="706" width="50" height="50" fill="#EF4B4C"/>
<rect x="296" y="310" width="50" height="50" fill="#157EE7"/>
<rect x="346" y="360" width="50" height="50" fill="#EF4B4C"/>
<rect x="346" y="310" width="50" height="50" fill="#343A40"/>
<rect x="396" y="310" width="50" height="50" fill="#FFC700"/>
<rect x="246" y="410" width="50" height="50" fill="#1F8B37"/>
<rect x="296" y="460" width="50" height="50" fill="#1F8B37"/>
<rect x="540" y="310" width="50" height="50" fill="#EF4B4C"/>
<rect x="590" y="360" width="50" height="50" fill="#157EE7"/>
<rect x="640" y="360" width="50" height="50" fill="#157EE7"/>
</svg>
