<svg width="1080" height="1080" viewBox="0 0 1080 1080" fill="none" xmlns="http://www.w3.org/2000/svg">
<rect x="87" y="835" width="570" height="826" transform="rotate(-90 87 835)" fill="#343A40"/>
<rect x="107" y="815" width="570" height="826" transform="rotate(-90 107 815)" fill="#D3D3D3"/>
<path d="M747 262H979V332H747V262Z" fill="#1F8B37"/>
<path d="M898 181L898 413H828L828 181L898 181Z" fill="#1F8B37"/>
<path d="M758 250H990V320H758V250Z" fill="#26BC47"/>
<path d="M909 169L909 401H839L839 169L909 169Z" fill="#26BC47"/>
<path d="M397.216 519V425.909H433.943C441.004 425.909 447.019 427.258 451.989 429.955C456.958 432.621 460.746 436.333 463.352 441.091C465.989 445.818 467.307 451.273 467.307 457.455C467.307 463.636 465.973 469.091 463.307 473.818C460.64 478.545 456.777 482.227 451.716 484.864C446.686 487.5 440.595 488.818 433.443 488.818H410.034V473.045H430.261C434.049 473.045 437.17 472.394 439.625 471.091C442.11 469.758 443.958 467.924 445.17 465.591C446.413 463.227 447.034 460.515 447.034 457.455C447.034 454.364 446.413 451.667 445.17 449.364C443.958 447.03 442.11 445.227 439.625 443.955C437.14 442.652 433.989 442 430.17 442H416.898V519H397.216ZM537.591 425.909H557.273V486.364C557.273 493.152 555.652 499.091 552.409 504.182C549.197 509.273 544.697 513.242 538.909 516.091C533.121 518.909 526.379 520.318 518.682 520.318C510.955 520.318 504.197 518.909 498.409 516.091C492.621 513.242 488.121 509.273 484.909 504.182C481.697 499.091 480.091 493.152 480.091 486.364V425.909H499.773V484.682C499.773 488.227 500.545 491.379 502.091 494.136C503.667 496.894 505.879 499.061 508.727 500.636C511.576 502.212 514.894 503 518.682 503C522.5 503 525.818 502.212 528.636 500.636C531.485 499.061 533.682 496.894 535.227 494.136C536.803 491.379 537.591 488.227 537.591 484.682V425.909ZM569.92 442.136V425.909H646.375V442.136H617.875V519H598.42V442.136H569.92ZM392.153 674V580.909H429.426C436.275 580.909 441.987 581.924 446.562 583.955C451.138 585.985 454.578 588.803 456.881 592.409C459.184 595.985 460.335 600.106 460.335 604.773C460.335 608.409 459.608 611.606 458.153 614.364C456.699 617.091 454.699 619.333 452.153 621.091C449.638 622.818 446.759 624.045 443.517 624.773V625.682C447.063 625.833 450.381 626.833 453.472 628.682C456.593 630.53 459.123 633.121 461.062 636.455C463.002 639.758 463.972 643.697 463.972 648.273C463.972 653.212 462.744 657.621 460.29 661.5C457.866 665.348 454.275 668.394 449.517 670.636C444.759 672.879 438.896 674 431.926 674H392.153ZM411.835 657.909H427.881C433.366 657.909 437.366 656.864 439.881 654.773C442.396 652.652 443.653 649.833 443.653 646.318C443.653 643.742 443.032 641.47 441.79 639.5C440.547 637.53 438.775 635.985 436.472 634.864C434.199 633.742 431.487 633.182 428.335 633.182H411.835V657.909ZM411.835 619.864H426.426C429.123 619.864 431.517 619.394 433.608 618.455C435.729 617.485 437.396 616.121 438.608 614.364C439.85 612.606 440.472 610.5 440.472 608.045C440.472 604.682 439.275 601.97 436.881 599.909C434.517 597.848 431.153 596.818 426.79 596.818H411.835V619.864ZM562.324 627.455C562.324 637.606 560.4 646.242 556.551 653.364C552.733 660.485 547.521 665.924 540.915 669.682C534.339 673.409 526.945 675.273 518.733 675.273C510.46 675.273 503.036 673.394 496.46 669.636C489.884 665.879 484.688 660.439 480.869 653.318C477.051 646.197 475.142 637.576 475.142 627.455C475.142 617.303 477.051 608.667 480.869 601.545C484.688 594.424 489.884 589 496.46 585.273C503.036 581.515 510.46 579.636 518.733 579.636C526.945 579.636 534.339 581.515 540.915 585.273C547.521 589 552.733 594.424 556.551 601.545C560.4 608.667 562.324 617.303 562.324 627.455ZM542.369 627.455C542.369 620.879 541.384 615.333 539.415 610.818C537.475 606.303 534.733 602.879 531.188 600.545C527.642 598.212 523.491 597.045 518.733 597.045C513.975 597.045 509.824 598.212 506.278 600.545C502.733 602.879 499.975 606.303 498.006 610.818C496.066 615.333 495.097 620.879 495.097 627.455C495.097 634.03 496.066 639.576 498.006 644.091C499.975 648.606 502.733 652.03 506.278 654.364C509.824 656.697 513.975 657.864 518.733 657.864C523.491 657.864 527.642 656.697 531.188 654.364C534.733 652.03 537.475 648.606 539.415 644.091C541.384 639.576 542.369 634.03 542.369 627.455ZM590.983 580.909L609.756 612.636H610.483L629.347 580.909H651.574L623.165 627.455L652.21 674H629.574L610.483 642.227H609.756L590.665 674H568.119L597.256 627.455L568.665 580.909H590.983Z" fill="black"/>
</svg>
