<svg width="1080" height="1080" viewBox="0 0 1080 1080" fill="none" xmlns="http://www.w3.org/2000/svg">
<ellipse cx="510" cy="548" rx="350" ry="300" fill="#343A40"/>
<ellipse cx="530" cy="531" rx="350" ry="300" fill="#D9D9D9"/>
<path d="M407.216 509V415.909H443.943C451.004 415.909 457.019 417.258 461.989 419.955C466.958 422.621 470.746 426.333 473.352 431.091C475.989 435.818 477.307 441.273 477.307 447.455C477.307 453.636 475.973 459.091 473.307 463.818C470.64 468.545 466.777 472.227 461.716 474.864C456.686 477.5 450.595 478.818 443.443 478.818H420.034V463.045H440.261C444.049 463.045 447.17 462.394 449.625 461.091C452.11 459.758 453.958 457.924 455.17 455.591C456.413 453.227 457.034 450.515 457.034 447.455C457.034 444.364 456.413 441.667 455.17 439.364C453.958 437.03 452.11 435.227 449.625 433.955C447.14 432.652 443.989 432 440.17 432H426.898V509H407.216ZM547.591 415.909H567.273V476.364C567.273 483.152 565.652 489.091 562.409 494.182C559.197 499.273 554.697 503.242 548.909 506.091C543.121 508.909 536.379 510.318 528.682 510.318C520.955 510.318 514.197 508.909 508.409 506.091C502.621 503.242 498.121 499.273 494.909 494.182C491.697 489.091 490.091 483.152 490.091 476.364V415.909H509.773V474.682C509.773 478.227 510.545 481.379 512.091 484.136C513.667 486.894 515.879 489.061 518.727 490.636C521.576 492.212 524.894 493 528.682 493C532.5 493 535.818 492.212 538.636 490.636C541.485 489.061 543.682 486.894 545.227 484.136C546.803 481.379 547.591 478.227 547.591 474.682V415.909ZM579.92 432.136V415.909H656.375V432.136H627.875V509H608.42V432.136H579.92ZM285.778 664V570.909H348.506V587.136H305.46V609.318H345.278V625.545H305.46V647.773H348.688V664H285.778ZM364.153 664V570.909H383.835V647.773H423.744V664H364.153ZM436.778 664V570.909H456.46V647.773H496.369V664H436.778ZM529.085 570.909V664H509.403V570.909H529.085ZM545.278 664V570.909H582.006C589.066 570.909 595.081 572.258 600.051 574.955C605.021 577.621 608.809 581.333 611.415 586.091C614.051 590.818 615.369 596.273 615.369 602.455C615.369 608.636 614.036 614.091 611.369 618.818C608.703 623.545 604.839 627.227 599.778 629.864C594.748 632.5 588.657 633.818 581.506 633.818H558.097V618.045H578.324C582.112 618.045 585.233 617.394 587.688 616.091C590.172 614.758 592.021 612.924 593.233 610.591C594.475 608.227 595.097 605.515 595.097 602.455C595.097 599.364 594.475 596.667 593.233 594.364C592.021 592.03 590.172 590.227 587.688 588.955C585.203 587.652 582.051 587 578.233 587H564.96V664H545.278ZM678.653 597.682C678.29 594.015 676.729 591.167 673.972 589.136C671.214 587.106 667.472 586.091 662.744 586.091C659.532 586.091 656.82 586.545 654.608 587.455C652.396 588.333 650.699 589.561 649.517 591.136C648.366 592.712 647.79 594.5 647.79 596.5C647.729 598.167 648.078 599.621 648.835 600.864C649.623 602.106 650.699 603.182 652.062 604.091C653.426 604.97 655.002 605.742 656.79 606.409C658.578 607.045 660.487 607.591 662.517 608.045L670.881 610.045C674.941 610.955 678.669 612.167 682.062 613.682C685.456 615.197 688.396 617.061 690.881 619.273C693.366 621.485 695.29 624.091 696.653 627.091C698.047 630.091 698.759 633.53 698.79 637.409C698.759 643.106 697.305 648.045 694.426 652.227C691.578 656.379 687.456 659.606 682.062 661.909C676.699 664.182 670.229 665.318 662.653 665.318C655.138 665.318 648.593 664.167 643.017 661.864C637.472 659.561 633.138 656.152 630.017 651.636C626.926 647.091 625.305 641.47 625.153 634.773H644.199C644.411 637.894 645.305 640.5 646.881 642.591C648.487 644.652 650.623 646.212 653.29 647.273C655.987 648.303 659.032 648.818 662.426 648.818C665.759 648.818 668.653 648.333 671.108 647.364C673.593 646.394 675.517 645.045 676.881 643.318C678.244 641.591 678.926 639.606 678.926 637.364C678.926 635.273 678.305 633.515 677.062 632.091C675.85 630.667 674.063 629.455 671.699 628.455C669.366 627.455 666.502 626.545 663.108 625.727L652.972 623.182C645.123 621.273 638.926 618.288 634.381 614.227C629.835 610.167 627.578 604.697 627.608 597.818C627.578 592.182 629.078 587.258 632.108 583.045C635.169 578.833 639.366 575.545 644.699 573.182C650.032 570.818 656.093 569.636 662.881 569.636C669.79 569.636 675.82 570.818 680.972 573.182C686.153 575.545 690.184 578.833 693.062 583.045C695.941 587.258 697.426 592.136 697.517 597.682H678.653ZM712.028 664V570.909H774.756V587.136H731.71V609.318H771.528V625.545H731.71V647.773H774.938V664H712.028Z" fill="black"/>
<rect x="683" y="262" width="232" height="70" fill="#5C0D0D"/>
<rect x="694" y="250" width="232" height="70" fill="#EF4B4C"/>
<path d="M683 262H915V332H683V262Z" fill="#1F8B37"/>
<path d="M834 181L834 413H764L764 181L834 181Z" fill="#1F8B37"/>
<path d="M694 250H926V320H694V250Z" fill="#26BC47"/>
<path d="M845 169L845 401H775L775 169L845 169Z" fill="#26BC47"/>
</svg>
