<svg width="1080" height="1080" viewBox="0 0 1080 1080" fill="none" xmlns="http://www.w3.org/2000/svg">
<circle cx="520" cy="557" r="350" fill="#343A40"/>
<circle cx="540" cy="540" r="350" fill="#D9D9D9"/>
<path d="M417.216 509V415.909H453.943C461.004 415.909 467.019 417.258 471.989 419.955C476.958 422.621 480.746 426.333 483.352 431.091C485.989 435.818 487.307 441.273 487.307 447.455C487.307 453.636 485.973 459.091 483.307 463.818C480.64 468.545 476.777 472.227 471.716 474.864C466.686 477.5 460.595 478.818 453.443 478.818H430.034V463.045H450.261C454.049 463.045 457.17 462.394 459.625 461.091C462.11 459.758 463.958 457.924 465.17 455.591C466.413 453.227 467.034 450.515 467.034 447.455C467.034 444.364 466.413 441.667 465.17 439.364C463.958 437.03 462.11 435.227 459.625 433.955C457.14 432.652 453.989 432 450.17 432H436.898V509H417.216ZM557.591 415.909H577.273V476.364C577.273 483.152 575.652 489.091 572.409 494.182C569.197 499.273 564.697 503.242 558.909 506.091C553.121 508.909 546.379 510.318 538.682 510.318C530.955 510.318 524.197 508.909 518.409 506.091C512.621 503.242 508.121 499.273 504.909 494.182C501.697 489.091 500.091 483.152 500.091 476.364V415.909H519.773V474.682C519.773 478.227 520.545 481.379 522.091 484.136C523.667 486.894 525.879 489.061 528.727 490.636C531.576 492.212 534.894 493 538.682 493C542.5 493 545.818 492.212 548.636 490.636C551.485 489.061 553.682 486.894 555.227 484.136C556.803 481.379 557.591 478.227 557.591 474.682V415.909ZM589.92 432.136V415.909H666.375V432.136H637.875V509H618.42V432.136H589.92ZM347.091 597.682C346.727 594.015 345.167 591.167 342.409 589.136C339.652 587.106 335.909 586.091 331.182 586.091C327.97 586.091 325.258 586.545 323.045 587.455C320.833 588.333 319.136 589.561 317.955 591.136C316.803 592.712 316.227 594.5 316.227 596.5C316.167 598.167 316.515 599.621 317.273 600.864C318.061 602.106 319.136 603.182 320.5 604.091C321.864 604.97 323.439 605.742 325.227 606.409C327.015 607.045 328.924 607.591 330.955 608.045L339.318 610.045C343.379 610.955 347.106 612.167 350.5 613.682C353.894 615.197 356.833 617.061 359.318 619.273C361.803 621.485 363.727 624.091 365.091 627.091C366.485 630.091 367.197 633.53 367.227 637.409C367.197 643.106 365.742 648.045 362.864 652.227C360.015 656.379 355.894 659.606 350.5 661.909C345.136 664.182 338.667 665.318 331.091 665.318C323.576 665.318 317.03 664.167 311.455 661.864C305.909 659.561 301.576 656.152 298.455 651.636C295.364 647.091 293.742 641.47 293.591 634.773H312.636C312.848 637.894 313.742 640.5 315.318 642.591C316.924 644.652 319.061 646.212 321.727 647.273C324.424 648.303 327.47 648.818 330.864 648.818C334.197 648.818 337.091 648.333 339.545 647.364C342.03 646.394 343.955 645.045 345.318 643.318C346.682 641.591 347.364 639.606 347.364 637.364C347.364 635.273 346.742 633.515 345.5 632.091C344.288 630.667 342.5 629.455 340.136 628.455C337.803 627.455 334.939 626.545 331.545 625.727L321.409 623.182C313.561 621.273 307.364 618.288 302.818 614.227C298.273 610.167 296.015 604.697 296.045 597.818C296.015 592.182 297.515 587.258 300.545 583.045C303.606 578.833 307.803 575.545 313.136 573.182C318.47 570.818 324.53 569.636 331.318 569.636C338.227 569.636 344.258 570.818 349.409 573.182C354.591 575.545 358.621 578.833 361.5 583.045C364.379 587.258 365.864 592.136 365.955 597.682H347.091ZM380.466 664V570.909H417.193C424.254 570.909 430.269 572.258 435.239 574.955C440.208 577.621 443.996 581.333 446.602 586.091C449.239 590.818 450.557 596.273 450.557 602.455C450.557 608.636 449.223 614.091 446.557 618.818C443.89 623.545 440.027 627.227 434.966 629.864C429.936 632.5 423.845 633.818 416.693 633.818H393.284V618.045H413.511C417.299 618.045 420.42 617.394 422.875 616.091C425.36 614.758 427.208 612.924 428.42 610.591C429.663 608.227 430.284 605.515 430.284 602.455C430.284 599.364 429.663 596.667 428.42 594.364C427.208 592.03 425.36 590.227 422.875 588.955C420.39 587.652 417.239 587 413.42 587H400.148V664H380.466ZM463.341 664V570.909H483.023V609.318H522.977V570.909H542.614V664H522.977V625.545H483.023V664H463.341ZM558.841 664V570.909H621.568V587.136H578.523V609.318H618.341V625.545H578.523V647.773H621.75V664H558.841ZM637.216 664V570.909H673.943C680.973 570.909 686.973 572.167 691.943 574.682C696.943 577.167 700.746 580.697 703.352 585.273C705.989 589.818 707.307 595.167 707.307 601.318C707.307 607.5 705.973 612.818 703.307 617.273C700.64 621.697 696.777 625.091 691.716 627.455C686.686 629.818 680.595 631 673.443 631H648.852V615.182H670.261C674.019 615.182 677.14 614.667 679.625 613.636C682.11 612.606 683.958 611.061 685.17 609C686.413 606.939 687.034 604.379 687.034 601.318C687.034 598.227 686.413 595.621 685.17 593.5C683.958 591.379 682.095 589.773 679.58 588.682C677.095 587.561 673.958 587 670.17 587H656.898V664H637.216ZM687.489 621.636L710.625 664H688.898L666.261 621.636H687.489ZM721.216 664V570.909H783.943V587.136H740.898V609.318H780.716V625.545H740.898V647.773H784.125V664H721.216Z" fill="black"/>
<rect x="683" y="262" width="232" height="70" fill="#5C0D0D"/>
<rect x="694" y="250" width="232" height="70" fill="#EF4B4C"/>
<path d="M683 262H915V332H683V262Z" fill="#1F8B37"/>
<path d="M834 181L834 413H764L764 181L834 181Z" fill="#1F8B37"/>
<path d="M694 250H926V320H694V250Z" fill="#26BC47"/>
<path d="M845 169L845 401H775L775 169L845 169Z" fill="#26BC47"/>
</svg>
