<svg width="1080" height="1080" viewBox="0 0 1080 1080" fill="none" xmlns="http://www.w3.org/2000/svg">
<rect x="210" y="835" width="570" height="600" transform="rotate(-90 210 835)" fill="#343A40"/>
<rect x="230" y="815" width="570" height="600" transform="rotate(-90 230 815)" fill="#D3D3D3"/>
<path d="M407.216 499V405.909H443.943C451.004 405.909 457.019 407.258 461.989 409.955C466.958 412.621 470.746 416.333 473.352 421.091C475.989 425.818 477.307 431.273 477.307 437.455C477.307 443.636 475.973 449.091 473.307 453.818C470.64 458.545 466.777 462.227 461.716 464.864C456.686 467.5 450.595 468.818 443.443 468.818H420.034V453.045H440.261C444.049 453.045 447.17 452.394 449.625 451.091C452.11 449.758 453.958 447.924 455.17 445.591C456.413 443.227 457.034 440.515 457.034 437.455C457.034 434.364 456.413 431.667 455.17 429.364C453.958 427.03 452.11 425.227 449.625 423.955C447.14 422.652 443.989 422 440.17 422H426.898V499H407.216ZM547.591 405.909H567.273V466.364C567.273 473.152 565.652 479.091 562.409 484.182C559.197 489.273 554.697 493.242 548.909 496.091C543.121 498.909 536.379 500.318 528.682 500.318C520.955 500.318 514.197 498.909 508.409 496.091C502.621 493.242 498.121 489.273 494.909 484.182C491.697 479.091 490.091 473.152 490.091 466.364V405.909H509.773V464.682C509.773 468.227 510.545 471.379 512.091 474.136C513.667 476.894 515.879 479.061 518.727 480.636C521.576 482.212 524.894 483 528.682 483C532.5 483 535.818 482.212 538.636 480.636C541.485 479.061 543.682 476.894 545.227 474.136C546.803 471.379 547.591 468.227 547.591 464.682V405.909ZM579.92 422.136V405.909H656.375V422.136H627.875V499H608.42V422.136H579.92ZM340.534 560.909L363.034 631.636H363.898L386.443 560.909H408.261L376.17 654H350.807L318.67 560.909H340.534ZM499.761 607.455C499.761 617.606 497.837 626.242 493.989 633.364C490.17 640.485 484.958 645.924 478.352 649.682C471.777 653.409 464.383 655.273 456.17 655.273C447.898 655.273 440.473 653.394 433.898 649.636C427.322 645.879 422.125 640.439 418.307 633.318C414.489 626.197 412.58 617.576 412.58 607.455C412.58 597.303 414.489 588.667 418.307 581.545C422.125 574.424 427.322 569 433.898 565.273C440.473 561.515 447.898 559.636 456.17 559.636C464.383 559.636 471.777 561.515 478.352 565.273C484.958 569 490.17 574.424 493.989 581.545C497.837 588.667 499.761 597.303 499.761 607.455ZM479.807 607.455C479.807 600.879 478.822 595.333 476.852 590.818C474.913 586.303 472.17 582.879 468.625 580.545C465.08 578.212 460.928 577.045 456.17 577.045C451.413 577.045 447.261 578.212 443.716 580.545C440.17 582.879 437.413 586.303 435.443 590.818C433.504 595.333 432.534 600.879 432.534 607.455C432.534 614.03 433.504 619.576 435.443 624.091C437.413 628.606 440.17 632.03 443.716 634.364C447.261 636.697 451.413 637.864 456.17 637.864C460.928 637.864 465.08 636.697 468.625 634.364C472.17 632.03 474.913 628.606 476.852 624.091C478.822 619.576 479.807 614.03 479.807 607.455ZM528.42 560.909L547.193 592.636H547.92L566.784 560.909H589.011L560.602 607.455L589.648 654H567.011L547.92 622.227H547.193L528.102 654H505.557L534.693 607.455L506.102 560.909H528.42ZM601.466 654V560.909H664.193V577.136H621.148V599.318H660.966V615.545H621.148V637.773H664.375V654H601.466ZM679.841 654V560.909H699.523V637.773H739.432V654H679.841Z" fill="black"/>
<rect x="683" y="262" width="232" height="70" fill="#5C0D0D"/>
<rect x="694" y="250" width="232" height="70" fill="#EF4B4C"/>
<path d="M683 262H915V332H683V262Z" fill="#1F8B37"/>
<path d="M834 181L834 413H764L764 181L834 181Z" fill="#1F8B37"/>
<path d="M694 250H926V320H694V250Z" fill="#26BC47"/>
<path d="M845 169L845 401H775L775 169L845 169Z" fill="#26BC47"/>
</svg>
